<?xml version="1.0" standalone="no"?>
<!DOCTYPE svg PUBLIC "-//W3C//DTD SVG 20010904//EN"
 "http://www.w3.org/TR/2001/REC-SVG-20010904/DTD/svg10.dtd">
<svg version="1.0" xmlns="http://www.w3.org/2000/svg"
 width="1588.000000pt" height="1588.000000pt" viewBox="0 0 1588.000000 1588.000000"
 preserveAspectRatio="xMidYMid meet">

<g transform="translate(0.000000,1588.000000) scale(0.100000,-0.100000)"
fill="#FFFFFF" stroke="none">
<path d="M7901 14077 c-16 -20 -38 -131 -46 -227 -3 -47 -13 -120 -21 -164 -8
-43 -14 -102 -14 -132 0 -63 -2 -66 -112 -141 l-76 -52 -7 -64 c-12 -109 5
-121 100 -75 49 24 155 65 215 84 25 7 84 14 133 14 l87 0 0 -100 c0 -71 -3
-100 -12 -100 -6 0 -64 -5 -127 -11 -109 -11 -122 -15 -216 -62 -153 -77 -151
-75 -163 -159 -12 -79 -4 -108 28 -108 18 0 42 10 145 63 90 45 176 67 266 67
67 0 79 -7 79 -45 0 -18 5 -56 10 -85 12 -62 5 -75 -43 -83 -18 -3 -52 -10
-77 -16 -25 -6 -72 -16 -105 -21 -33 -5 -71 -12 -85 -15 -14 -3 -45 -11 -70
-17 -92 -21 -97 -24 -104 -81 -7 -52 -19 -238 -36 -557 -4 -91 -13 -217 -19
-280 -6 -63 -16 -187 -21 -275 -14 -210 -27 -368 -40 -485 -12 -110 -27 -273
-40 -445 -5 -66 -12 -138 -15 -160 -14 -99 -26 -214 -29 -279 -2 -39 -10 -118
-19 -176 -8 -58 -20 -166 -26 -240 -7 -74 -16 -166 -21 -205 -5 -38 -14 -122
-20 -185 -12 -131 -14 -147 -30 -250 -6 -41 -15 -122 -20 -180 -15 -166 -36
-386 -49 -490 -26 -224 -35 -277 -53 -318 -23 -56 -23 -85 2 -107 15 -14 28
-16 57 -10 21 3 57 10 80 14 54 10 70 23 77 69 5 33 31 259 56 502 5 47 14
130 20 185 6 55 15 154 20 220 15 193 29 352 40 465 32 301 39 394 79 1045 18
297 30 479 40 610 5 72 9 137 9 145 3 163 46 902 70 1190 7 85 7 85 42 102 19
9 45 17 57 18 12 0 32 4 45 9 13 5 50 14 83 21 33 6 83 18 111 26 79 23 81 21
88 -119 3 -67 10 -169 16 -227 15 -169 30 -364 39 -520 5 -80 12 -154 15 -165
3 -11 8 -65 11 -120 3 -55 9 -156 15 -225 6 -69 14 -177 19 -240 6 -63 15
-169 21 -235 6 -66 16 -192 21 -280 22 -321 28 -402 38 -495 15 -138 32 -344
42 -515 4 -82 13 -204 19 -270 6 -66 15 -178 20 -250 5 -71 17 -218 26 -325
18 -216 27 -246 72 -236 15 3 50 9 77 12 28 3 62 10 77 16 23 8 33 5 70 -20
24 -17 67 -53 96 -81 29 -28 59 -51 67 -51 19 0 29 37 17 68 -14 37 -28 103
-42 192 -7 41 -16 84 -20 95 -5 11 -11 34 -15 50 -14 68 -26 133 -36 190 -17
94 -26 145 -39 210 -39 197 -78 428 -100 600 -5 39 -13 97 -19 130 -28 166
-33 196 -41 265 -5 41 -14 100 -19 130 -5 30 -14 88 -20 129 -6 40 -13 77 -16
81 -2 4 -7 43 -10 86 -5 77 -14 147 -34 269 -6 33 -15 105 -21 160 -5 55 -15
116 -21 135 -6 19 -15 80 -19 135 -5 55 -14 134 -20 175 -20 142 -28 205 -44
359 -9 84 -19 157 -22 163 -6 10 -21 142 -29 258 -3 41 -9 95 -15 120 -5 25
-17 110 -26 190 -9 80 -20 172 -25 205 -14 93 -28 239 -34 360 -4 61 -9 133
-13 160 -4 28 -5 70 -1 95 7 53 -6 186 -25 250 l-13 45 -91 19 -90 19 -16 71
c-9 39 -20 107 -26 151 -12 99 -35 229 -49 274 -19 61 -63 90 -90 58z"/>
<path d="M7929 11314 c-10 -13 -16 -62 -21 -188 -8 -210 -23 -431 -37 -551
-11 -94 -27 -275 -42 -480 -4 -66 -13 -174 -19 -240 -5 -66 -14 -176 -20 -245
-5 -69 -15 -163 -20 -210 -6 -47 -14 -128 -19 -180 -15 -169 -42 -443 -51
-520 -11 -87 -18 -153 -30 -265 -5 -44 -14 -123 -20 -175 -15 -127 -10 -185
22 -216 l24 -25 27 21 c35 28 47 76 58 244 23 328 27 386 38 486 15 144 30
311 41 460 5 69 14 170 19 225 18 176 32 337 41 475 12 165 19 220 29 220 11
0 21 -62 21 -135 0 -61 26 -402 35 -465 3 -19 5 -57 6 -85 1 -59 24 -364 39
-515 5 -58 12 -148 14 -200 14 -284 51 -504 94 -552 22 -26 55 -22 86 8 28 28
32 58 16 108 -15 49 -59 333 -65 421 -3 59 -25 222 -36 282 -6 29 -8 57 -5 61
3 5 1 47 -5 93 -12 97 -25 232 -38 404 -6 66 -15 163 -21 215 -6 52 -13 142
-16 200 -3 58 -9 109 -12 115 -3 5 -9 70 -13 145 -10 194 -28 449 -41 565 -6
55 -12 134 -14 175 -5 126 -26 309 -39 326 -10 14 -12 14 -26 -2z"/>
<path d="M10045 8541 c-42 -21 -71 -45 -98 -80 -49 -64 -86 -136 -94 -184 -7
-48 -24 -55 -61 -28 -65 46 -124 63 -230 69 -130 6 -175 -9 -249 -84 -86 -89
-92 -182 -21 -332 48 -101 139 -175 322 -262 104 -49 170 -63 165 -35 -2 10
-13 23 -24 29 -11 6 -39 23 -62 39 -23 15 -44 27 -48 27 -3 0 -39 23 -80 51
-88 59 -116 101 -145 213 -20 76 -20 76 -1 115 28 53 69 71 151 64 81 -6 168
-35 242 -79 31 -19 62 -34 70 -34 20 0 38 21 38 43 0 10 19 47 43 80 52 76 51
76 109 115 123 84 217 4 235 -200 6 -64 -8 -168 -28 -213 -18 -42 -42 -141
-43 -180 -1 -29 3 -40 15 -43 20 -4 66 66 159 246 12 24 24 41 27 38 2 -2 -3
-46 -13 -97 -31 -171 -9 -267 111 -494 27 -49 60 -112 75 -140 17 -33 34 -51
48 -53 28 -4 28 10 1 108 -11 41 -31 130 -44 198 -20 101 -22 132 -14 182 13
80 40 141 79 173 44 37 71 42 116 21 51 -24 148 -122 169 -171 32 -72 40 -85
52 -90 7 -3 48 13 91 35 116 60 180 82 243 82 51 0 60 -4 98 -37 34 -30 44
-47 48 -81 13 -96 -57 -217 -168 -292 -32 -22 -62 -40 -66 -40 -5 0 -34 -16
-66 -36 -54 -34 -69 -55 -47 -69 13 -8 122 30 185 65 28 16 68 38 89 50 97 53
165 126 212 226 21 43 24 184 6 236 -17 47 -99 111 -178 139 -102 36 -233 12
-339 -60 -42 -29 -63 -27 -71 7 -24 114 -108 233 -196 278 -107 54 -207 52
-293 -7 -44 -30 -105 -93 -105 -109 0 -5 -4 -10 -10 -10 -12 0 -13 27 -1 34 4
3 11 19 14 36 4 16 7 32 9 35 1 2 7 46 14 97 13 106 5 173 -31 253 -60 131
-127 178 -265 183 -77 2 -91 0 -145 -27z"/>
<path d="M6150 8554 c-49 -20 -55 -101 -11 -160 15 -21 41 -50 56 -64 32 -29
105 -125 105 -138 0 -8 48 -86 127 -210 19 -29 61 -112 94 -186 46 -104 59
-144 59 -182 0 -74 -7 -79 -100 -78 -46 1 -86 6 -93 13 -6 6 -18 11 -27 11 -9
0 -35 9 -58 20 -22 11 -46 20 -51 20 -11 0 -131 52 -163 70 -10 6 -34 10 -53
10 -45 0 -61 -32 -44 -89 14 -46 25 -60 74 -93 65 -43 123 -66 245 -98 25 -7
59 -17 75 -24 17 -6 73 -11 125 -11 111 0 147 15 194 83 35 49 45 128 27 210
-25 117 -176 385 -291 515 -33 38 -32 49 10 59 57 13 172 49 209 66 72 31 122
9 140 -62 6 -25 11 -55 11 -68 0 -63 26 -134 63 -170 44 -45 77 -49 106 -12
38 49 17 199 -43 307 -13 23 -34 67 -46 97 -37 87 -53 100 -124 100 -45 0 -68
-6 -86 -20 -14 -11 -35 -20 -47 -20 -12 0 -24 -4 -27 -9 -3 -5 -20 -11 -38
-14 -18 -2 -59 -12 -91 -21 -99 -27 -112 -24 -147 37 -41 74 -80 108 -126 113
-22 2 -46 1 -54 -2z"/>
<path d="M8620 8210 c-25 -5 -92 -24 -150 -43 -58 -19 -125 -38 -150 -42 -25
-4 -137 -34 -250 -67 -113 -33 -227 -67 -255 -75 -27 -8 -77 -23 -110 -32 -33
-10 -67 -20 -75 -24 -8 -3 -55 -18 -105 -33 -49 -14 -123 -37 -164 -50 -40
-13 -81 -24 -90 -24 -17 0 -126 -32 -166 -49 -11 -5 -40 -14 -65 -21 -102 -27
-115 -35 -112 -61 3 -35 69 -182 86 -193 20 -13 43 7 51 45 8 34 40 59 93 69
20 5 62 15 92 24 30 9 109 30 175 46 66 17 163 44 215 60 52 16 113 32 135 36
22 3 105 25 185 49 80 24 192 55 250 70 58 14 121 30 140 35 122 32 292 70
312 70 46 0 109 -45 236 -170 117 -114 205 -193 351 -315 57 -47 101 -59 101
-27 0 16 -73 110 -183 236 -23 26 -62 74 -87 106 -157 201 -301 356 -347 376
-35 15 -46 16 -113 4z"/>
<path d="M5643 7956 l-28 -24 22 -69 c12 -37 27 -88 34 -113 30 -116 71 -180
114 -180 23 0 65 34 65 52 0 6 -4 25 -9 42 -45 153 -54 183 -62 198 -5 10 -9
26 -9 35 0 10 -9 33 -20 51 -25 40 -66 43 -107 8z"/>
<path d="M8680 7638 c0 -24 7 -70 16 -103 17 -67 30 -125 44 -200 19 -96 29
-140 40 -180 13 -47 25 -99 39 -174 6 -29 17 -74 24 -100 8 -25 20 -71 26
-101 7 -30 16 -66 21 -80 4 -14 13 -45 20 -70 7 -25 16 -56 20 -70 4 -14 12
-43 18 -65 18 -69 43 -149 56 -180 7 -16 21 -55 30 -85 18 -53 28 -79 83 -200
14 -30 32 -71 40 -92 8 -21 24 -39 36 -42 12 -4 78 -9 147 -12 187 -7 184 -7
264 -83 39 -37 91 -83 116 -103 25 -20 65 -55 90 -77 50 -46 65 -50 80 -21 9
17 -1 43 -61 158 -39 75 -75 142 -79 147 -5 6 -29 53 -55 105 -26 52 -57 110
-69 130 -21 33 -31 56 -95 230 -68 183 -104 324 -126 485 -9 66 -20 147 -24
180 -5 33 -15 76 -24 95 -16 39 -147 168 -253 250 -11 8 -44 36 -74 61 -30 25
-68 54 -85 65 -34 21 -99 70 -130 97 -34 30 -108 77 -122 77 -9 0 -13 -14 -13
-42z"/>
<path d="M8240 7640 c-19 -5 -60 -13 -90 -19 -118 -23 -136 -28 -170 -43 -19
-9 -46 -18 -60 -21 -77 -16 -277 -75 -380 -112 -43 -16 -62 -41 -40 -55 16
-10 108 -3 125 10 6 4 28 10 50 14 22 3 63 10 90 16 28 5 75 14 105 20 30 5
75 15 100 20 25 6 68 14 96 17 50 5 51 5 58 -23 8 -32 24 -202 32 -336 6 -93
5 -95 -40 -78 -31 11 -33 31 -6 48 35 21 25 42 -20 42 -22 0 -48 -4 -58 -9 -9
-5 -35 -14 -57 -21 -61 -20 -117 -58 -113 -78 2 -13 22 -20 78 -29 93 -15 207
-16 215 -3 15 24 23 5 29 -67 12 -136 25 -265 36 -363 36 -304 70 -624 79
-735 11 -140 7 -135 104 -135 88 0 198 18 209 35 5 5 5 24 2 40 -5 29 -8 38
-32 95 -5 14 -15 41 -22 60 -13 37 -26 68 -58 140 -35 79 -83 218 -101 295 -7
28 -16 66 -21 85 -5 19 -12 51 -15 70 -4 19 -11 53 -17 75 -16 71 -29 129 -38
180 -5 28 -14 75 -20 105 -5 30 -14 84 -20 120 -5 36 -14 92 -20 125 -7 33
-14 133 -17 222 -4 153 -3 165 16 197 12 19 33 41 46 50 21 14 24 20 15 36
-11 21 -16 22 -70 10z"/>
<path d="M7136 7439 c-14 -17 -26 -37 -26 -45 0 -8 -9 -33 -19 -57 -11 -23
-25 -60 -31 -82 -7 -22 -16 -48 -21 -57 -5 -10 -9 -25 -9 -34 0 -22 -97 -307
-127 -372 -13 -30 -33 -80 -43 -113 -21 -64 -103 -262 -155 -374 -18 -38 -40
-88 -50 -110 -23 -51 -172 -362 -189 -395 -132 -245 -246 -474 -246 -491 0
-25 25 -27 135 -13 193 24 209 32 256 121 20 37 46 97 57 133 11 36 56 175
100 310 43 135 96 304 116 375 20 72 50 174 67 227 16 54 36 128 44 165 8 37
24 100 36 138 32 105 98 354 109 405 5 25 13 62 19 83 46 159 53 189 47 204
-9 23 -43 14 -70 -18z"/>
<path d="M5961 7395 c-62 -57 -84 -113 -79 -209 2 -50 11 -97 22 -121 10 -22
23 -51 29 -65 18 -39 108 -170 118 -170 5 0 9 -4 9 -10 0 -19 -29 -10 -82 24
-81 51 -175 96 -201 96 -37 0 -77 -36 -77 -70 0 -30 35 -66 103 -109 29 -18
37 -29 37 -53 0 -16 8 -42 18 -56 23 -34 62 -129 62 -152 0 -9 3 -20 7 -24 30
-30 44 -233 19 -281 -19 -36 -64 -65 -101 -65 -40 0 -81 22 -184 98 -82 60
-86 62 -146 62 -67 0 -80 -9 -136 -90 -22 -32 -24 -44 -23 -150 2 -110 3 -119
42 -212 22 -53 54 -116 70 -140 53 -77 158 -183 205 -206 71 -35 157 -55 185
-43 13 6 34 11 47 11 15 0 32 11 47 33 21 30 23 41 21 152 -1 106 -5 130 -32
205 -36 98 -38 119 -13 126 85 25 150 83 164 146 31 133 17 245 -53 423 -36
91 -36 115 -2 96 10 -5 75 -35 144 -66 175 -76 240 -76 264 3 16 55 -2 88 -73
136 -59 39 -199 173 -242 232 -8 11 -31 51 -50 89 -31 63 -34 76 -33 148 2 73
16 139 35 162 23 27 -4 67 -54 79 -23 5 -35 0 -67 -29z m-394 -1287 c67 -29
129 -78 174 -138 78 -104 123 -277 89 -341 -14 -25 -33 -24 -86 2 -55 28 -107
83 -177 187 -61 90 -83 162 -74 240 7 60 24 71 74 50z"/>
<path d="M9955 7328 c-118 -41 -138 -53 -208 -122 -115 -115 -152 -209 -174
-445 -8 -91 20 -293 52 -366 72 -168 159 -338 207 -407 10 -14 18 -31 18 -38
0 -6 13 -30 28 -53 16 -23 38 -63 50 -89 18 -39 27 -48 47 -48 31 0 32 20 5
110 -10 36 -26 94 -35 130 -9 36 -21 81 -27 100 -5 19 -14 56 -19 83 -5 26
-14 71 -19 100 -18 88 -23 241 -11 311 6 36 28 103 47 151 69 164 170 209 319
140 59 -28 224 -198 256 -265 84 -177 83 -175 104 -172 11 2 37 17 58 34 21
16 77 48 125 69 48 22 98 46 112 54 82 44 257 58 358 29 69 -20 128 -75 138
-130 11 -61 -3 -204 -27 -269 -25 -70 -101 -174 -167 -229 -87 -72 -256 -176
-287 -176 -3 0 -34 -17 -68 -38 -35 -21 -71 -41 -80 -45 -19 -7 -23 -32 -7
-42 6 -3 25 -2 43 4 116 38 166 55 197 71 19 9 49 23 65 30 75 32 172 85 208
116 15 13 44 31 64 41 53 25 183 158 224 228 112 192 126 350 44 500 -53 96
-126 155 -250 200 -60 21 -88 25 -192 26 -176 1 -270 -29 -414 -132 -38 -27
-75 -49 -83 -49 -8 0 -16 14 -19 33 -16 95 -57 212 -102 287 -87 143 -156 200
-328 269 -34 14 -211 13 -252 -1z"/>
<path d="M7289 7133 c-41 -43 -55 -77 -63 -148 -5 -52 -14 -94 -39 -185 -9
-30 -21 -82 -27 -115 -14 -71 -29 -132 -40 -160 -5 -11 -11 -31 -13 -45 -9
-42 -39 -154 -48 -175 -12 -28 -80 -234 -89 -270 -15 -53 -71 -208 -96 -263
-13 -29 -38 -95 -55 -145 -18 -51 -40 -111 -51 -134 -11 -23 -18 -52 -16 -65
3 -26 30 -29 108 -10 25 6 74 18 108 26 86 20 94 32 112 176 5 36 14 88 20
115 6 28 15 75 20 105 5 30 21 109 35 175 14 66 25 134 25 151 0 17 4 44 9 60
16 55 41 169 51 239 5 39 14 90 19 115 20 98 33 167 41 210 5 25 14 65 20 90
12 53 28 151 37 233 5 52 4 57 -14 57 -10 0 -35 -17 -54 -37z"/>
<path d="M7390 7041 c0 -10 11 -26 25 -35 32 -21 31 -27 -6 -48 -22 -13 -30
-24 -27 -40 4 -30 31 -34 76 -12 20 10 73 30 117 45 85 29 107 47 86 72 -15
19 -116 37 -204 37 -59 0 -67 -2 -67 -19z"/>
<path d="M8065 6821 c-22 -10 -53 -21 -70 -24 -43 -10 -134 -59 -140 -77 -13
-33 44 -46 230 -52 79 -3 80 -3 80 21 0 19 -7 27 -32 33 -46 12 -50 27 -14 55
34 27 40 48 15 57 -22 8 -24 8 -69 -13z"/>
<path d="M7358 6733 c-29 -7 -20 -33 17 -49 41 -17 44 -28 10 -50 -30 -19 -42
-53 -24 -65 17 -10 52 -2 109 26 25 13 73 31 108 40 53 15 62 21 62 41 0 31
-10 36 -115 51 -92 13 -136 14 -167 6z"/>
<path d="M8092 6513 c-13 -3 -69 -23 -125 -46 -84 -35 -103 -47 -111 -69 -5
-15 -7 -30 -4 -34 4 -3 42 -7 85 -9 43 -1 115 -6 160 -10 74 -7 83 -6 89 10 9
23 -16 41 -67 50 -46 8 -46 21 -1 50 34 22 41 49 16 59 -9 3 -16 5 -17 5 -1
-1 -12 -4 -25 -6z"/>
<path d="M7317 6403 c-16 -15 -5 -34 28 -47 19 -8 35 -19 35 -24 0 -5 -18 -21
-40 -36 -40 -27 -47 -40 -31 -65 10 -16 49 -5 146 40 33 15 83 34 110 42 45
13 50 17 50 43 0 26 -5 30 -45 41 -48 12 -242 17 -253 6z"/>
<path d="M8093 6196 c-18 -6 -35 -15 -39 -19 -4 -4 -15 -7 -25 -7 -21 0 -146
-57 -171 -78 -15 -12 -25 -49 -15 -53 1 -1 76 -7 167 -14 165 -13 195 -10 184
19 -5 12 -45 33 -99 51 -19 7 -19 8 5 23 13 10 36 27 49 38 22 19 23 24 12 38
-15 18 -23 18 -68 2z"/>
<path d="M7363 6083 c-56 -3 -85 -8 -93 -18 -10 -13 -6 -18 23 -30 20 -8 41
-15 46 -15 26 0 16 -20 -24 -49 -27 -19 -45 -40 -45 -52 0 -34 58 -23 198 38
18 8 55 21 81 29 27 8 51 21 55 29 9 24 -4 45 -33 51 -14 2 -42 9 -62 14 -20
6 -43 9 -50 8 -8 -1 -51 -4 -96 -5z"/>
<path d="M8058 5860 c-53 -17 -155 -60 -187 -78 -26 -15 -37 -40 -25 -59 9
-15 32 -19 145 -24 74 -3 142 -9 152 -13 23 -11 67 1 67 18 0 19 -30 42 -72
55 -21 7 -40 16 -43 21 -2 4 14 20 36 34 45 30 50 60 9 63 -14 1 -51 -7 -82
-17z"/>
<path d="M4885 5756 c-106 -49 -221 -228 -310 -481 -23 -68 -31 -95 -65 -240
-27 -117 -20 -183 24 -223 61 -56 101 -30 115 76 5 41 12 76 15 79 3 3 18 -8
35 -24 60 -60 270 -213 401 -291 98 -58 283 -142 315 -142 13 0 27 -4 30 -10
3 -5 39 -10 80 -10 65 0 76 3 89 22 21 30 20 50 -5 82 -24 30 -71 54 -214 106
-88 33 -121 48 -133 63 -8 9 -11 87 -10 238 2 220 -7 322 -43 484 -35 158
-155 295 -259 295 -8 0 -37 -11 -65 -24z m97 -163 c34 -37 84 -137 92 -188 31
-182 35 -238 29 -387 -5 -125 -9 -158 -20 -158 -22 0 -193 117 -248 170 -55
52 -83 70 -113 70 -36 0 -41 21 -20 85 10 33 26 75 34 93 7 17 21 49 31 70 67
154 143 272 174 272 8 0 27 -12 41 -27z"/>
<path d="M7238 5764 c-26 -27 7 -64 56 -64 39 0 32 -25 -16 -57 -31 -21 -43
-36 -43 -53 0 -31 25 -37 71 -16 69 32 100 45 139 56 22 7 48 16 57 21 10 5
23 9 29 9 16 0 69 39 69 51 0 16 -67 40 -123 43 -29 2 -92 7 -142 11 -49 4
-93 4 -97 -1z"/>
<path d="M9195 5690 c-22 -4 -96 -18 -165 -30 -69 -12 -147 -27 -175 -32 -27
-5 -81 -13 -120 -18 -38 -5 -97 -14 -130 -19 -33 -6 -96 -16 -140 -21 -87 -10
-119 -15 -180 -29 -22 -5 -80 -15 -130 -21 -49 -6 -137 -20 -195 -30 -58 -10
-134 -21 -170 -25 -68 -6 -173 -24 -325 -56 -49 -10 -128 -21 -175 -25 -47 -3
-112 -12 -145 -20 -33 -7 -136 -25 -230 -40 -197 -30 -238 -37 -360 -59 -49
-9 -115 -21 -145 -25 -85 -13 -189 -30 -255 -41 -33 -6 -85 -15 -115 -19 -30
-5 -77 -14 -105 -19 -27 -6 -90 -19 -140 -29 -86 -16 -90 -19 -93 -45 -3 -27
23 -115 57 -192 10 -22 24 -57 32 -78 32 -90 74 -56 63 52 -5 40 -3 61 5 66
14 8 87 20 216 35 92 11 216 34 271 51 17 5 46 9 65 9 19 0 70 7 114 16 44 8
127 21 185 29 58 8 123 19 145 24 64 17 95 14 95 -8 0 -10 6 -23 13 -28 13
-10 78 -30 112 -35 36 -6 21 -26 -56 -76 -88 -57 -97 -68 -76 -89 13 -13 20
-13 62 2 26 8 72 27 102 40 29 14 61 25 69 25 30 0 225 82 231 97 14 37 -97
73 -224 73 -66 0 -130 17 -116 31 5 5 43 14 84 19 40 6 108 15 149 21 41 6 93
15 115 20 40 11 92 19 265 44 52 7 159 25 238 39 79 14 194 32 255 40 62 8
159 24 217 35 178 33 352 64 420 72 36 5 88 13 115 18 28 5 77 14 110 20 33 6
83 16 110 23 28 7 82 12 120 12 77 0 161 -30 245 -87 50 -34 90 -57 170 -99
30 -16 59 -33 65 -38 5 -4 109 -65 230 -135 121 -70 235 -138 253 -151 40 -31
100 -57 112 -49 27 17 -2 49 -120 134 -25 17 -92 68 -150 112 -58 43 -134 100
-170 124 -36 25 -84 60 -106 78 -23 17 -77 59 -120 91 -44 33 -100 77 -125 98
-26 21 -77 56 -115 79 -59 36 -78 42 -134 45 -36 1 -83 -1 -105 -6z"/>
<path d="M7985 5184 c-33 -8 -94 -22 -135 -31 -81 -18 -120 -37 -120 -59 0
-25 64 -49 275 -101 33 -8 78 -19 100 -25 135 -34 136 13 2 84 -32 17 -56 35
-54 41 1 5 25 18 52 28 64 25 89 44 82 64 -8 19 -115 19 -202 -1z"/>
<path d="M9513 5184 c-3 -8 -3 -43 0 -77 3 -34 9 -96 12 -137 4 -41 13 -104
22 -139 8 -35 18 -85 23 -110 13 -69 25 -112 44 -156 29 -65 34 -77 56 -145
29 -88 97 -231 220 -465 34 -66 85 -163 112 -215 28 -52 53 -99 58 -105 4 -5
38 -68 74 -140 36 -71 72 -141 80 -155 8 -14 51 -101 97 -195 45 -93 105 -210
133 -260 29 -49 64 -115 80 -145 15 -30 37 -71 48 -90 137 -229 178 -316 200
-421 10 -47 9 -72 -1 -121 -18 -89 -42 -129 -132 -221 -44 -45 -78 -88 -77
-97 3 -13 47 -15 369 -15 387 0 399 2 399 46 0 11 -4 27 -10 37 -5 9 -28 58
-51 107 -65 142 -187 385 -219 440 -17 28 -37 65 -44 82 -25 56 -167 316 -202
369 -18 28 -79 140 -136 250 -57 109 -109 208 -116 219 -6 11 -33 65 -60 120
-27 55 -59 117 -71 138 -11 21 -21 42 -21 47 0 5 -11 34 -25 65 -14 31 -23 61
-19 67 5 7 32 8 88 3 45 -4 97 -9 116 -11 126 -11 259 -119 423 -344 26 -36
72 -99 102 -140 30 -41 55 -81 55 -87 0 -7 3 -13 8 -13 4 0 43 -56 87 -125 44
-69 108 -168 143 -220 34 -52 62 -97 62 -100 0 -4 14 -26 30 -50 17 -24 30
-46 30 -50 0 -4 13 -25 29 -48 60 -89 126 -228 125 -266 -1 -39 -36 -103 -74
-134 -13 -11 -20 -27 -18 -40 3 -22 4 -22 188 -19 172 3 186 5 203 24 9 11 17
26 17 32 0 27 -122 237 -291 499 -38 59 -69 109 -69 112 0 2 -23 41 -51 87
-29 46 -61 99 -71 118 -11 19 -41 66 -67 103 -25 37 -59 89 -75 115 -45 72
-207 306 -221 317 -6 6 -42 55 -79 110 -37 55 -94 138 -127 185 -51 72 -120
180 -213 334 -24 40 -70 155 -108 275 -36 111 -64 146 -194 239 -106 75 -281
192 -288 192 -2 0 -45 27 -95 60 -50 33 -95 60 -101 60 -5 0 -10 5 -10 10 0 6
-5 10 -10 10 -6 0 -41 19 -78 41 -37 23 -98 60 -137 82 -38 22 -81 49 -94 59
-29 22 -70 23 -78 2z"/>
<path d="M8584 5006 c-7 -18 -5 -31 25 -201 38 -209 48 -253 81 -360 11 -38
25 -83 29 -100 5 -16 16 -50 25 -75 8 -25 16 -52 16 -61 0 -21 102 -221 134
-263 15 -20 60 -52 113 -79 113 -59 131 -72 203 -140 68 -65 96 -68 85 -10
-11 60 -69 194 -130 298 -32 55 -66 115 -77 134 -10 18 -42 67 -69 108 -56 82
-108 173 -140 243 -12 25 -73 151 -137 280 -114 229 -142 269 -158 226z"/>
<path d="M8065 4850 c-11 -5 -38 -9 -61 -9 -23 -1 -54 -5 -70 -10 -16 -5 -56
-14 -89 -21 -56 -11 -88 -22 -125 -40 -8 -4 -15 -17 -15 -30 0 -23 4 -25 155
-70 36 -10 84 -24 108 -29 23 -6 59 -15 80 -20 20 -5 63 -17 94 -26 62 -18 78
-15 78 15 0 20 -35 45 -123 90 -26 13 -50 27 -53 32 -5 7 47 34 134 70 24 9
32 19 30 33 -3 17 -11 20 -63 22 -33 1 -69 -2 -80 -7z"/>
<path d="M6567 4698 c-29 -46 -62 -103 -74 -128 -11 -25 -41 -72 -65 -105 -24
-33 -51 -72 -60 -87 -10 -14 -83 -102 -163 -194 -176 -202 -290 -365 -366
-524 -12 -25 -26 -53 -30 -62 -5 -10 -9 -31 -9 -48 0 -50 36 -40 105 31 33 34
103 95 155 137 52 42 112 94 134 116 65 68 176 243 249 391 37 77 72 148 78
157 5 10 9 22 9 28 0 5 15 42 34 82 53 117 108 266 101 278 -18 29 -47 7 -98
-72z"/>
<path d="M6832 4738 c-10 -12 -10 -17 1 -26 15 -13 92 -39 127 -44 36 -4 32
-37 -5 -57 -49 -26 -132 -90 -138 -105 -3 -8 1 -20 9 -26 14 -12 31 -7 149 40
11 4 36 13 55 20 19 7 44 16 55 20 11 5 49 19 85 31 187 63 212 92 114 129
-47 17 -88 22 -248 27 -164 5 -193 4 -204 -9z"/>
<path d="M5824 4618 c-11 -13 -30 -43 -43 -68 -13 -25 -37 -63 -53 -85 -15
-22 -74 -110 -130 -195 -55 -85 -116 -173 -134 -195 -18 -22 -65 -88 -106
-147 -40 -59 -111 -162 -158 -228 -47 -67 -96 -138 -110 -160 -51 -79 -222
-328 -292 -425 -39 -55 -98 -140 -131 -190 -33 -49 -63 -92 -67 -95 -4 -3 -35
-45 -69 -95 -51 -75 -158 -225 -204 -286 -15 -19 -29 -41 -65 -97 -15 -23 -56
-83 -92 -132 -36 -49 -94 -130 -130 -181 -36 -51 -89 -124 -117 -162 -39 -52
-50 -73 -42 -83 7 -9 51 -13 152 -14 78 -1 174 -3 212 -4 94 -1 190 16 190 34
0 17 -60 49 -93 50 -35 0 -62 18 -62 40 0 11 11 40 25 65 14 25 37 66 51 92
14 26 38 65 54 88 15 22 47 72 70 110 23 39 46 72 50 75 4 3 30 43 59 90 58
95 52 85 106 166 22 32 50 79 64 104 13 25 59 98 103 162 43 65 78 121 78 125
0 5 13 24 28 43 16 19 35 46 42 60 7 14 50 81 95 150 45 69 109 168 141 220
65 108 134 216 235 372 38 60 69 110 69 113 0 3 33 56 73 118 41 62 92 141
114 177 22 36 60 96 84 134 40 64 44 77 51 155 10 122 -4 150 -48 99z"/>
<path d="M8205 4510 c-11 -5 -47 -9 -81 -9 -34 -1 -74 -5 -90 -10 -16 -5 -54
-14 -84 -21 -77 -17 -172 -50 -189 -65 -17 -16 -8 -43 16 -51 10 -3 27 -9 38
-14 29 -11 82 -26 140 -39 100 -24 163 -41 316 -85 73 -21 107 -9 81 30 -10
16 -119 85 -170 108 -46 21 -54 41 -19 51 12 4 41 15 64 26 24 10 49 19 57 19
8 0 18 5 21 10 3 6 14 10 25 10 19 0 30 17 23 38 -5 14 -116 16 -148 2z"/>
<path d="M6753 4394 c-32 -14 12 -64 56 -64 11 0 23 -4 26 -10 3 -5 16 -10 28
-10 33 0 97 -20 97 -30 0 -5 -15 -16 -32 -24 -47 -22 -179 -118 -192 -138 -21
-34 6 -41 70 -18 32 12 82 29 109 37 28 9 59 19 70 23 11 5 36 13 55 20 19 6
47 18 62 26 15 8 54 23 88 34 157 50 174 91 50 122 -76 19 -460 44 -487 32z"/>
<path d="M7435 4119 c-66 -5 -154 -15 -195 -23 -41 -8 -100 -17 -130 -21 -30
-3 -82 -14 -115 -24 -33 -10 -87 -26 -120 -35 -33 -9 -94 -31 -135 -47 -41
-17 -105 -42 -141 -55 -62 -23 -210 -95 -289 -141 -19 -12 -75 -44 -125 -73
-49 -28 -101 -62 -115 -75 -14 -13 -51 -41 -83 -63 -195 -136 -467 -418 -638
-665 -110 -160 -238 -402 -346 -657 -83 -195 -96 -245 -110 -387 -5 -59 -4
-63 19 -73 24 -11 281 0 294 12 6 7 47 162 99 383 19 77 43 169 53 205 31 104
140 353 177 406 19 27 35 53 35 57 0 11 69 114 136 202 102 135 345 367 489
466 28 19 52 37 53 42 2 4 8 7 14 7 5 0 28 13 51 28 37 26 111 67 232 130 168
89 435 184 580 207 44 7 113 20 152 29 106 24 399 29 528 10 146 -22 243 -43
300 -64 160 -60 197 -76 281 -126 50 -30 94 -54 97 -54 6 0 81 -50 167 -112
62 -44 120 -106 120 -126 0 -5 -10 -12 -22 -15 -22 -5 -110 -35 -228 -79 -163
-60 -374 -183 -433 -252 -11 -11 -33 -37 -51 -56 -45 -50 -145 -225 -146 -256
0 -12 -45 -130 -59 -155 -5 -9 -13 -38 -17 -65 -4 -27 -13 -67 -21 -89 -26
-74 -83 -307 -83 -340 0 -24 5 -35 19 -40 21 -6 221 11 230 21 3 3 6 58 8 122
5 259 31 388 108 544 24 48 197 238 217 238 4 0 31 15 60 33 65 42 133 80 218
123 36 19 88 47 115 64 28 17 57 33 65 37 8 3 27 15 42 25 14 10 33 18 42 18
9 0 16 5 16 10 0 26 55 8 98 -32 97 -90 236 -252 276 -324 9 -16 37 -60 62
-99 24 -38 65 -108 89 -155 24 -47 51 -96 60 -110 19 -32 128 -265 144 -310
22 -60 28 -73 69 -160 22 -47 47 -107 57 -135 9 -27 22 -63 30 -80 7 -16 22
-52 34 -80 46 -109 30 -100 176 -103 165 -4 175 -1 175 41 0 30 -23 136 -52
242 -28 103 -90 245 -216 495 -75 148 -217 385 -258 430 -12 14 -35 46 -52 72
-98 158 -364 449 -530 582 -88 70 -217 159 -295 202 -231 130 -527 228 -764
254 -56 6 -128 15 -160 20 -67 11 -187 11 -358 -1z"/>
<path d="M6545 3470 c-22 -4 -58 -11 -80 -15 -214 -37 -548 -265 -634 -432 -9
-18 -8 -23 10 -28 15 -5 40 6 90 39 38 25 71 46 74 46 4 0 32 17 63 38 62 42
244 132 305 152 59 18 214 16 259 -4 66 -29 66 -27 57 -351 -5 -159 -13 -348
-19 -420 -14 -178 -13 -338 2 -353 9 -9 100 -12 349 -12 290 0 338 2 343 15 9
24 -4 45 -38 59 -58 24 -150 53 -206 65 -64 14 -81 25 -103 68 -20 38 -23 188
-6 243 7 21 11 120 11 253 -1 190 -4 228 -22 295 -44 160 -116 260 -225 312
-67 32 -162 44 -230 30z"/>
</g>
</svg>
